<?xml version="1.0" encoding="UTF-8"?>
<svg version="1.1" xmlns="http://www.w3.org/2000/svg" width="48" height="48">
<path d="M0 0 C0.969375 -0.00386719 1.93875 -0.00773438 2.9375 -0.01171875 C3.948125 -0.00011719 4.95875 0.01148438 6 0.0234375 C7.010625 0.01183594 8.02125 0.00023437 9.0625 -0.01171875 C10.031875 -0.00785156 11.00125 -0.00398437 12 0 C12.886875 0.00338379 13.77375 0.00676758 14.6875 0.01025391 C17 0.3984375 17 0.3984375 18.79418945 1.42651367 C20.70470933 4.55088481 20.3662194 7.79910912 20.29296875 11.34765625 C20.28872391 12.12027298 20.28447906 12.89288971 20.28010559 13.68891907 C20.26332183 16.15494742 20.22567147 18.62015646 20.1875 21.0859375 C20.17245271 22.75845173 20.15876438 24.43097878 20.14648438 26.10351562 C20.11341946 30.20213828 20.06164028 34.30014901 20 38.3984375 C16.01510243 37.69897624 13.51554988 36.67053965 10.1875 34.3359375 C9.39730469 33.78808594 8.60710938 33.24023438 7.79296875 32.67578125 C6.90544922 32.04349609 6.90544922 32.04349609 6 31.3984375 C4.98679687 32.15640625 4.98679687 32.15640625 3.953125 32.9296875 C2.61507813 33.90421875 2.61507813 33.90421875 1.25 34.8984375 C-0.07257812 35.87296875 -0.07257812 35.87296875 -1.421875 36.8671875 C-4 38.3984375 -4 38.3984375 -8 38.3984375 C-8.07414321 33.46886491 -8.12859817 28.53961669 -8.16479492 23.60961914 C-8.17988384 21.9324783 -8.20035748 20.25537693 -8.22631836 18.57836914 C-8.26269811 16.16803246 -8.27972486 13.75821731 -8.29296875 11.34765625 C-8.30845261 10.59755783 -8.32393646 9.84745941 -8.33988953 9.07463074 C-8.34083335 6.15686009 -8.34032919 3.95499528 -6.79418945 1.42651367 C-4.41954918 0.06583736 -2.73345203 0.01042923 0 0 Z " fill="#FF7D85" transform="translate(18,4.6015625)"/>
</svg>
