<?xml version="1.0" encoding="UTF-8"?>
<svg version="1.1" xmlns="http://www.w3.org/2000/svg" width="24" height="24">
<path d="M0 0 C0.99 0 1.98 0 3 0 C2.52238806 5.37313433 2.52238806 5.37313433 0.4375 7.875 C-4.42665882 10.11999638 -9.93117805 9.26720549 -15 8 C-15 6.02 -15 4.04 -15 2 C-13.02 2 -11.04 2 -9 2 C-9 2.99 -9 3.98 -9 5 C-6.12635209 5.41746608 -6.12635209 5.41746608 -3 5 C-1.28288757 2.55503957 -1.28288757 2.55503957 0 0 Z " fill="#535353" transform="translate(18,12)"/>
<path d="M0 0 C0 1.98 0 3.96 0 6 C-1.98 6 -3.96 6 -6 6 C-6 5.01 -6 4.02 -6 3 C-8.87364791 2.58253392 -8.87364791 2.58253392 -12 3 C-13.71711243 5.44496043 -13.71711243 5.44496043 -15 8 C-15.99 8 -16.98 8 -18 8 C-17.52238806 2.62686567 -17.52238806 2.62686567 -15.4375 0.125 C-10.57334118 -2.11999638 -5.06882195 -1.26720549 0 0 Z " fill="#525252" transform="translate(21,4)"/>
</svg>
