<svg xmlns="http://www.w3.org/2000/svg" width="159.133" height="159.133" viewBox="0 0 159.133 159.133">
  <g id="Group_97916" data-name="Group 97916" transform="translate(-718 -364)">
    <path id="Path_841" data-name="Path 841" d="M79.567,0A79.567,79.567,0,1,1,0,79.567,79.567,79.567,0,0,1,79.567,0Z" transform="translate(718 364)" fill="rgba(0,183,168,0.04)"/>
    <path id="Path_842" data-name="Path 842" d="M20.494,7.5H61.455a6.088,6.088,0,0,1,4.676,2.189l6.908,8.289a6.09,6.09,0,0,1,1.41,3.9V66.334a8.115,8.115,0,0,1-8.115,8.115H15.615A8.115,8.115,0,0,1,7.5,66.334V21.876a6.094,6.094,0,0,1,1.41-3.9l6.908-8.289A6.088,6.088,0,0,1,20.494,7.5Z" transform="translate(756.934 414.196)" fill="#fff" stroke="#00b7a8" stroke-linecap="round" stroke-linejoin="round" stroke-width="3"/>
    <path id="Subtraction_4" data-name="Subtraction 4" d="M8.86,66.949H3.968c3.636,0,6.594-3.641,6.594-8.115V14.376c0-.058,0-.116,0-.174a6.987,6.987,0,0,0-1.145-3.723L3.8,2.189A4.63,4.63,0,0,0,0,0H4.489a5.232,5.232,0,0,1,4.19,2.189l6.19,8.289A6.542,6.542,0,0,1,16.13,14.2c0,.058,0,.116,0,.174V58.834A8.558,8.558,0,0,1,14,64.572,6.866,6.866,0,0,1,8.86,66.949Z" transform="translate(815.251 421.696)" fill="#b3eae5"/>
    <line id="Line_515" data-name="Line 515" x2="67.963" transform="translate(763.419 435.897)" fill="none" stroke="#00b7a8" stroke-linejoin="round" stroke-width="3"/>
    <g id="Group_93999" data-name="Group 93999" transform="translate(780.999 449.534)">
      <g id="Group_93992" data-name="Group 93992">
        <circle id="Ellipse_39394" data-name="Ellipse 39394" cx="3.978" cy="3.978" r="3.978" fill="#00b7a8"/>
        <path id="Path_811" data-name="Path 811" d="M3.978,0A3.978,3.978,0,1,1,0,3.978,3.978,3.978,0,0,1,3.978,0Z" transform="translate(25.859)" fill="#00b7a8"/>
        <circle id="Ellipse_39396" data-name="Ellipse 39396" cx="1.326" cy="1.326" r="1.326" transform="translate(28.511 0.663)" fill="#fff"/>
        <circle id="Ellipse_39397" data-name="Ellipse 39397" cx="1.326" cy="1.326" r="1.326" transform="translate(2.652 0.663)" fill="#fff"/>
      </g>
      <path id="Path_822" data-name="Path 822" d="M-5300.133,1969.266a9.8,9.8,0,0,1,10.255,0" transform="translate(5311.736 -1952.69)" fill="none" stroke="#00b7a8" stroke-linecap="round" stroke-width="3"/>
    </g>
    <path id="Path_847" data-name="Path 847" d="M1741.03,1419.252h66.737v-2.568l-9.018-10.4-2.865-1.167h-42.436l-3.713,1.167-8.706,10.927Z" transform="translate(-976.596 -983.355)" fill="rgba(0,183,168,0.24)"/>
    <path id="Path_843" data-name="Path 843" d="M1836.474,1414.936l27.318-7.78-12.9-13.206-25.3,7.194Z" transform="translate(-1004.429 -979.591)" fill="#fff" stroke="#00b7a8" stroke-linejoin="round" stroke-width="3"/>
    <path id="Path_844" data-name="Path 844" d="M1852.918,1414.936l-27.318-7.78,12.9-13.206,25.3,7.194Z" transform="translate(-1089.234 -979.591)" fill="#fff" stroke="#00b7a8" stroke-linejoin="round" stroke-width="3"/>
    <path id="Path_845" data-name="Path 845" d="M20.494,7.5H61.455a6.088,6.088,0,0,1,4.676,2.189l6.908,8.289a6.09,6.09,0,0,1,1.41,3.9V66.334a8.115,8.115,0,0,1-8.115,8.115H15.615A8.115,8.115,0,0,1,7.5,66.334V21.876a6.094,6.094,0,0,1,1.41-3.9l6.908-8.289A6.088,6.088,0,0,1,20.494,7.5Z" transform="translate(756.934 414.196)" fill="none" stroke="#00b7a8" stroke-linecap="round" stroke-linejoin="round" stroke-width="3"/>
    <path id="Path_846" data-name="Path 846" d="M19.288,7.5H56.448A5.334,5.334,0,0,1,60.69,9.689l6.267,8.289a6.479,6.479,0,0,1,1.279,3.9V66.334c0,4.482-3.3,8.115-7.362,8.115H14.862c-4.066,0-7.362-3.633-7.362-8.115V21.876a6.484,6.484,0,0,1,1.279-3.9l6.267-8.289A5.334,5.334,0,0,1,19.288,7.5Z" transform="translate(763.147 414.196)" fill="rgba(0,183,168,0.08)"/>
    <g id="Group_93990" data-name="Group 93990" transform="translate(790.273 385.881)">
      <path id="Path_651" data-name="Path 651" d="M93.294,11a7.294,7.294,0,1,0,7.294,7.294A7.294,7.294,0,0,0,93.294,11Z" transform="translate(-86 -11)" fill="#00b7a8"/>
      <path id="Path_652" data-name="Path 652" d="M104.094,23.835A1.075,1.075,0,0,1,103,22.741V19.094a1.094,1.094,0,1,1,2.188,0v3.647A1.075,1.075,0,0,1,104.094,23.835Zm0,3.647a.993.993,0,0,1-.766-.328,1.05,1.05,0,0,1-.328-.766.463.463,0,0,1,.036-.219.518.518,0,0,1,.073-.219c.036-.073.073-.109.109-.182a.285.285,0,0,1,.146-.146c.073-.036.109-.109.182-.146s.109-.073.182-.109.146-.036.219-.073a1.081,1.081,0,0,1,.985.292l.146.146c.036.073.073.109.109.182s.036.146.073.219c0,.073.036.146.036.219a.993.993,0,0,1-.328.766A1.309,1.309,0,0,1,104.094,27.482Z" transform="translate(-96.8 -15.447)" fill="#fff"/>
    </g>
    <path id="Path_848" data-name="Path 848" d="M1787.733,1403.244s-14.322-16.621,4.951-21.041,34.3-7.073,30.058-23.87" transform="translate(-990.608 -967.59)" fill="none" stroke="#00b7a8" stroke-width="1" stroke-dasharray="2"/>
    <ellipse id="Ellipse_39427" data-name="Ellipse 39427" cx="1.658" cy="1.989" rx="1.658" ry="1.989" transform="translate(828.988 386.204) rotate(-13)" fill="#00b7a8"/>
    <ellipse id="Ellipse_39428" data-name="Ellipse 39428" cx="0.72" cy="0.864" rx="0.72" ry="0.864" transform="translate(834.035 385.32) rotate(43)" fill="#00b7a8"/>
    <ellipse id="Ellipse_39429" data-name="Ellipse 39429" cx="0.72" cy="0.864" rx="0.72" ry="0.864" transform="translate(828.852 387.247) rotate(137)" fill="#00b7a8"/>
    <g id="Ellipse_39398" data-name="Ellipse 39398" transform="translate(851 444)" fill="none" stroke="rgba(0,183,168,0.24)" stroke-width="2">
      <ellipse cx="3" cy="2.5" rx="3" ry="2.5" stroke="none"/>
      <ellipse cx="3" cy="2.5" rx="2" ry="1.5" fill="none"/>
    </g>
    <g id="Ellipse_39412" data-name="Ellipse 39412" transform="translate(795 502)" fill="none" stroke="rgba(0,183,168,0.24)" stroke-width="2">
      <circle cx="2.5" cy="2.5" r="2.5" stroke="none"/>
      <circle cx="2.5" cy="2.5" r="1.5" fill="none"/>
    </g>
    <g id="Ellipse_39409" data-name="Ellipse 39409" transform="translate(739 444)" fill="none" stroke="rgba(0,183,168,0.24)" stroke-width="2">
      <circle cx="2.5" cy="2.5" r="2.5" stroke="none"/>
      <circle cx="2.5" cy="2.5" r="1.5" fill="none"/>
    </g>
    <g id="Ellipse_39402" data-name="Ellipse 39402" transform="translate(846 400)" fill="none" stroke="rgba(0,183,168,0.24)" stroke-width="1">
      <circle cx="1.5" cy="1.5" r="1.5" stroke="none"/>
      <circle cx="1.5" cy="1.5" r="1" fill="none"/>
    </g>
    <g id="Ellipse_39410" data-name="Ellipse 39410" transform="translate(747 400)" fill="none" stroke="rgba(0,183,168,0.24)" stroke-width="1">
      <ellipse cx="1" cy="1.5" rx="1" ry="1.5" stroke="none"/>
      <ellipse cx="1" cy="1.5" rx="0.5" ry="1" fill="none"/>
    </g>
    <g id="Ellipse_39413" data-name="Ellipse 39413" transform="translate(836 494)" fill="none" stroke="rgba(0,183,168,0.24)" stroke-width="1">
      <circle cx="1.5" cy="1.5" r="1.5" stroke="none"/>
      <circle cx="1.5" cy="1.5" r="1" fill="none"/>
    </g>
    <g id="Ellipse_39430" data-name="Ellipse 39430" transform="translate(854 468)" fill="none" stroke="rgba(0,183,168,0.24)" stroke-width="1">
      <circle cx="1.5" cy="1.5" r="1.5" stroke="none"/>
      <circle cx="1.5" cy="1.5" r="1" fill="none"/>
    </g>
    <g id="Ellipse_39431" data-name="Ellipse 39431" transform="translate(739 468)" fill="none" stroke="rgba(0,183,168,0.24)" stroke-width="1">
      <ellipse cx="1" cy="1.5" rx="1" ry="1.5" stroke="none"/>
      <ellipse cx="1" cy="1.5" rx="0.5" ry="1" fill="none"/>
    </g>
    <g id="Ellipse_39414" data-name="Ellipse 39414" transform="translate(756 494)" fill="none" stroke="rgba(0,183,168,0.24)" stroke-width="1">
      <circle cx="1.5" cy="1.5" r="1.5" stroke="none"/>
      <circle cx="1.5" cy="1.5" r="1" fill="none"/>
    </g>
  </g>
</svg>
