<?xml version="1.0" encoding="UTF-8"?>
<svg version="1.1" xmlns="http://www.w3.org/2000/svg" width="50" height="50">
<path d="M0 0 C11.88 0 23.76 0 36 0 C36 5.62329374 36 5.62329374 33.62890625 8.26171875 C32.89124023 9.10379883 32.89124023 9.10379883 32.13867188 9.96289062 C31.61853516 10.53201172 31.09839844 11.10113281 30.5625 11.6875 C25.05789459 17.82289596 25.05789459 17.82289596 23.9375 25.75 C23.5475394 31.34391754 23.5475394 31.34391754 21.2265625 34.125 C16.06610577 38 16.06610577 38 13 38 C13.05542969 36.86304688 13.11085938 35.72609375 13.16796875 34.5546875 C13.34530118 23.22388417 11.10692577 16.91460714 3.46875 8.52734375 C1.74125233 6.75687473 1.74125233 6.75687473 0 5 C0 3.35 0 1.7 0 0 Z M6 4 C10.9199534 10.57057819 10.9199534 10.57057819 16 17 C19.62009168 16.74279988 20.84947302 16.15124491 23.45703125 13.53125 C24.23433594 12.5309375 25.01164062 11.530625 25.8125 10.5 C26.60269531 9.4996875 27.39289062 8.499375 28.20703125 7.46875 C30.09793978 5.37366965 30.09793978 5.37366965 30 4 C22.08 4 14.16 4 6 4 Z M17 21 C17 23.97 17 26.94 17 30 C17.66 29.67 18.32 29.34 19 29 C19 26.36 19 23.72 19 21 C18.34 21 17.68 21 17 21 Z " fill="#000000" transform="translate(7,6)"/>
</svg>
