<?xml version="1.0" encoding="UTF-8"?>
<svg version="1.1" xmlns="http://www.w3.org/2000/svg" width="50" height="50">
<path d="M0 0 C2.475 0.495 2.475 0.495 5 1 C5.33 4.96 5.66 8.92 6 13 C6.33 11.02 6.66 9.04 7 7 C9.296875 7.1953125 9.296875 7.1953125 12 8 C13.765625 10.1796875 13.765625 10.1796875 15.25 12.875 C16.00023437 14.20144531 16.00023437 14.20144531 16.765625 15.5546875 C19.36598292 20.70602945 19.47812619 25.33331927 19 31 C17.20646165 36.28097404 14.39000798 38.79895251 10 42 C4.60080143 43.79973286 -0.93557265 43.70112627 -6.3125 41.875 C-10.43843192 38.99644284 -13.37787651 35.86637047 -15 31 C-15.99976974 23.21607847 -14.35821453 17.47249709 -10 11 C-6.85306827 7.14781362 -3.51659506 3.51659506 0 0 Z M-1 7 C-6.2705101 12.95973065 -10.53941126 18.54764217 -11.375 26.625 C-10.97665389 30.210115 -10.10209941 32.10961331 -8 35 C-6.42633683 32.63950525 -5.29362807 30.54973396 -4.125 28 C-2.55490328 24.78897512 -1.18196296 22.81826455 2 21 C6.69267989 25.0409188 8.7650674 29.26908345 11 35 C13.84072482 32.28278496 14.90979788 30.9020212 15.3125 26.875 C14.93261422 22.16441633 13.34420032 19.02909431 11 15 C10.34 15.66 9.68 16.32 9 17 C6 17.3125 6 17.3125 3 17 C0.70366176 13.55549263 0.45983515 11.06187717 0 7 C-0.33 7 -0.66 7 -1 7 Z M1 26 C-2.03881908 30.33969197 -2.03881908 30.33969197 -2.875 35.3125 C-2.00702329 37.19447261 -2.00702329 37.19447261 0 39 C2.55460214 39.07272562 2.55460214 39.07272562 5 38 C6.78348677 35.9191146 6.78348677 35.9191146 7 33 C5.93006336 30.40311862 4.57270163 28.35905244 3 26 C2.34 26 1.68 26 1 26 Z " fill="#F29C11" transform="translate(23,3)"/>
</svg>
