<?xml version="1.0" encoding="UTF-8"?>
<svg version="1.1" xmlns="http://www.w3.org/2000/svg" width="50" height="50">
<path d="M0 0 C1.77697266 -0.02513672 1.77697266 -0.02513672 3.58984375 -0.05078125 C7.37009862 0.34467848 9.72650221 1.57073796 13.0625 3.3125 C15.89325548 2.63256573 15.89325548 2.63256573 18.0625 1.3125 C18.0625 2.6325 18.0625 3.9525 18.0625 5.3125 C19.3825 5.6425 20.7025 5.9725 22.0625 6.3125 C21.0725 7.3025 20.0825 8.2925 19.0625 9.3125 C19.536875 9.910625 20.01125 10.50875 20.5 11.125 C24.45827605 16.66658647 23.5676812 23.81009632 23.0625 30.3125 C21.44567658 36.51681637 17.36103884 40.85357859 12.0625 44.3125 C5.60394822 47.51980803 -2.51212212 47.47633954 -9.41796875 45.66015625 C-15.13851559 43.08203746 -19.30619192 38.59746285 -22.078125 33.015625 C-24.14736775 26.50691599 -24.20996784 18.10296513 -21.375 11.8125 C-16.42807433 3.63779304 -9.41338912 0.03066251 0 0 Z M-16.3125 10.875 C-20.35886798 16.94455197 -20.84910223 22.05689038 -19.9375 29.3125 C-17.6175397 35.25619995 -13.56965176 39.13637422 -8.14453125 42.38671875 C-3.06891439 44.51578281 3.38998945 44.35564121 8.484375 42.3671875 C13.77093338 39.20717704 17.6957201 35.04738975 20.0625 29.3125 C20.63087217 23.31115856 20.87025253 16.78022862 18.0625 11.3125 C17.0725 10.9825 16.0825 10.6525 15.0625 10.3125 C14.0725 11.6325 13.0825 12.9525 12.0625 14.3125 C12.54847656 14.68761719 13.03445312 15.06273437 13.53515625 15.44921875 C16.19894453 18.6989042 15.5213109 22.32293504 15.4140625 26.359375 C14.94466743 30.30229361 13.78700128 32.44072838 11.0625 35.3125 C5.62110924 39.20187897 0.54399391 39.10292609 -5.9375 38.3125 C-10.55331142 36.12606301 -12.66614085 33.81650196 -14.9375 29.3125 C-15.76635269 23.76441396 -15.6615695 18.84109117 -13.25 13.75 C-10.12892365 10.46021682 -7.57220668 8.51466452 -3 7.94921875 C-1.989375 7.96597656 -0.97875 7.98273437 0.0625 8 C1.5784375 8.00580078 1.5784375 8.00580078 3.125 8.01171875 C6.11475499 8.31785058 8.34602213 9.0591251 11.0625 10.3125 C11.7225 9.3225 12.3825 8.3325 13.0625 7.3125 C2.92104117 -0.06310642 -8.05516345 1.96576845 -16.3125 10.875 Z M-11.9375 16.3125 C-13.81605086 20.06960172 -13.60129578 24.23228738 -12.9375 28.3125 C-10.93738833 31.74653788 -8.51398506 34.52425747 -4.9375 36.3125 C-0.63537555 36.93383059 3.39645487 37.28286679 7.2421875 35.04296875 C11.62735521 31.33866569 11.62735521 31.33866569 13.265625 26.03515625 C13.28109375 25.15730469 13.2965625 24.27945312 13.3125 23.375 C13.33828125 22.49972656 13.3640625 21.62445313 13.390625 20.72265625 C13.00540357 17.8931131 12.25555243 17.06117075 10.0625 15.3125 C9.0725 16.6325 8.0825 17.9525 7.0625 19.3125 C7.7225 19.3125 8.3825 19.3125 9.0625 19.3125 C8.80726126 20.94002231 8.53275506 22.56453196 8.25 24.1875 C8.09917969 25.09242187 7.94835937 25.99734375 7.79296875 26.9296875 C7.0625 29.3125 7.0625 29.3125 4.0625 31.3125 C-2.84160959 31.97003425 -2.84160959 31.97003425 -6.4375 29.8125 C-8.56417686 26.26803856 -8.71364824 23.34186531 -7.9375 19.3125 C-6.5625 16.8125 -6.5625 16.8125 -3.9375 15.3125 C-1.31245207 15.17277971 1.2003761 15.25105072 3.8203125 15.46484375 C4.56023438 15.41457031 5.30015625 15.36429688 6.0625 15.3125 C6.7225 14.3225 7.3825 13.3325 8.0625 12.3125 C0.69504205 7.40086137 -6.54157327 9.94299627 -11.9375 16.3125 Z M-4.8125 18.4375 C-6.46604531 21.19340884 -6.33115568 23.16325452 -5.9375 26.3125 C-4.9375 28.3125 -4.9375 28.3125 -2.9375 29.3125 C0.21174548 29.70615568 2.18159116 29.84104531 4.9375 28.1875 C6.5307099 25.53215017 6.26464032 23.34460482 6.0625 20.3125 C4.0225281 21.67573743 4.0225281 21.67573743 2.0625 23.3125 C2.0625 23.9725 2.0625 24.6325 2.0625 25.3125 C0.7425 25.3125 -0.5775 25.3125 -1.9375 25.3125 C-1.9375 23.9925 -1.9375 22.6725 -1.9375 21.3125 C-1.298125 21.02375 -0.65875 20.735 0 20.4375 C2.21456079 19.48426549 2.21456079 19.48426549 3.0625 17.3125 C-1.06337749 16.97732489 -1.06337749 16.97732489 -4.8125 18.4375 Z " fill="#FFFFFF" transform="translate(24.9375,1.6875)"/>
</svg>
