<?xml version="1.0" encoding="UTF-8"?>
<svg version="1.1" xmlns="http://www.w3.org/2000/svg" width="50" height="50">
<path d="M0 0 C3.69021763 1.63505027 6.61063319 3.9603711 9.7265625 6.5 C10.35498047 6.995 10.98339844 7.49 11.63085938 8 C14.49139998 10.28843248 16.47724481 12.03227346 18.5390625 15.125 C18.78198242 17.74462891 18.78198242 17.74462891 18.76953125 20.8515625 C18.76759766 21.9653125 18.76566406 23.0790625 18.76367188 24.2265625 C18.74530273 25.97066406 18.74530273 25.97066406 18.7265625 27.75 C18.72591797 28.92046875 18.72527344 30.0909375 18.72460938 31.296875 C18.67925474 39.98480776 18.67925474 39.98480776 17.5390625 41.125 C15.00856848 41.19813567 12.50601413 41.21747527 9.9765625 41.1875 C9.26564453 41.18298828 8.55472656 41.17847656 7.82226562 41.17382812 C6.06116237 41.16200864 4.30010214 41.14407263 2.5390625 41.125 C2.5390625 36.835 2.5390625 32.545 2.5390625 28.125 C0.5590625 28.125 -1.4209375 28.125 -3.4609375 28.125 C-3.4609375 32.415 -3.4609375 36.705 -3.4609375 41.125 C-5.94017551 41.15185095 -8.4191259 41.17176547 -10.8984375 41.1875 C-11.60548828 41.19587891 -12.31253906 41.20425781 -13.04101562 41.21289062 C-14.84787309 41.22153588 -16.65481353 41.17720011 -18.4609375 41.125 C-21.05292921 38.53300829 -19.74445851 31.35634247 -19.7734375 27.875 C-19.80244141 26.72902344 -19.83144531 25.58304688 -19.86132812 24.40234375 C-19.92509852 15.97484071 -19.92509852 15.97484071 -17.84375 12.1640625 C-17.05742187 11.49117187 -16.27109375 10.81828125 -15.4609375 10.125 C-14.97681396 9.69058594 -14.49269043 9.25617187 -13.99389648 8.80859375 C-12.37912013 7.39371378 -10.71659149 6.0696926 -9.0234375 4.75 C-8.18329102 4.05583984 -8.18329102 4.05583984 -7.32617188 3.34765625 C-4.89571122 1.44752948 -3.12955562 0.15896156 0 0 Z M-12.4140625 12.28125 C-15.9956507 15.9982247 -16.33919697 19.37081544 -16.44091797 24.40942383 C-16.28675112 28.67267492 -15.99731462 32.89233618 -15.4609375 37.125 C-12.8209375 37.125 -10.1809375 37.125 -7.4609375 37.125 C-7.40035156 36.34253906 -7.33976562 35.56007813 -7.27734375 34.75390625 C-7.19355469 33.74199219 -7.10976563 32.73007812 -7.0234375 31.6875 C-6.94222656 30.67816406 -6.86101563 29.66882813 -6.77734375 28.62890625 C-6.4609375 26.125 -6.4609375 26.125 -5.4609375 25.125 C-3.79664699 25.02676063 -2.12811819 24.99526369 -0.4609375 25 C0.9003125 24.99613281 0.9003125 24.99613281 2.2890625 24.9921875 C4.5390625 25.125 4.5390625 25.125 5.5390625 26.125 C5.77270131 27.97391946 5.95209885 29.82988031 6.1015625 31.6875 C6.22724609 33.20537109 6.22724609 33.20537109 6.35546875 34.75390625 C6.41605469 35.53636719 6.47664063 36.31882812 6.5390625 37.125 C9.1790625 37.125 11.8190625 37.125 14.5390625 37.125 C16.38698162 25.18949871 16.38698162 25.18949871 13.19726562 14.05078125 C9.52065592 10.23519317 5.23376328 7.52864176 0.5390625 5.125 C-4.14884589 5.125 -8.92990668 9.35008404 -12.4140625 12.28125 Z " fill="#FFFFFF" transform="translate(25.4609375,3.875)"/>
</svg>
