<?xml version="1.0" encoding="UTF-8"?>
<svg version="1.1" xmlns="http://www.w3.org/2000/svg" width="50" height="50">
<path d="M0 0 C1.91619141 -0.00773438 1.91619141 -0.00773438 3.87109375 -0.015625 C4.53351074 -0.00724609 5.19592773 0.00113281 5.87841797 0.00976562 C7.90063448 0.0311905 9.91929961 0.00995261 11.94140625 -0.015625 C13.21886719 -0.01046875 14.49632813 -0.0053125 15.8125 0 C16.98103516 0.00451172 18.14957031 0.00902344 19.35351562 0.01367188 C22.40625 0.53125 22.40625 0.53125 24.78515625 2.24804688 C26.6941852 4.93678765 26.92064215 6.3233265 26.9375 9.59375 C26.94523437 11.03621094 26.94523437 11.03621094 26.953125 12.5078125 C26.93765625 13.50554688 26.9221875 14.50328125 26.90625 15.53125 C26.92171875 16.52898438 26.9371875 17.52671875 26.953125 18.5546875 C26.91469943 25.72105722 26.91469943 25.72105722 24.734375 29.1953125 C21.84993002 30.85048059 19.96895309 30.9319964 16.65625 30.90625 C11.04469668 31.15914583 8.26361804 32.41182849 4.22265625 36.25390625 C1.83504032 37.93293939 0.26233137 37.83163919 -2.59375 37.53125 C-3.59375 36.53125 -3.59375 36.53125 -3.65625 33.46875 C-3.635625 32.499375 -3.615 31.53 -3.59375 30.53125 C-4.3775 30.428125 -5.16125 30.325 -5.96875 30.21875 C-8.59375 29.53125 -8.59375 29.53125 -10.59375 26.53125 C-11.05301914 22.90070819 -10.96406516 19.25026658 -10.96875 15.59375 C-10.99324219 14.59150391 -11.01773437 13.58925781 -11.04296875 12.55664062 C-11.04683594 11.59048828 -11.05070313 10.62433594 -11.0546875 9.62890625 C-11.06290527 8.74726807 -11.07112305 7.86562988 -11.07958984 6.95727539 C-9.84026781 0.76876129 -5.6606292 0.02185571 0 0 Z M-6.59375 5.53125 C-6.65166844 8.65617251 -6.68731746 11.78095766 -6.71875 14.90625 C-6.73550781 15.79570312 -6.75226562 16.68515625 -6.76953125 17.6015625 C-6.77597656 18.45234375 -6.78242187 19.303125 -6.7890625 20.1796875 C-6.79953613 20.96520996 -6.81000977 21.75073242 -6.82080078 22.56005859 C-6.77365127 24.765715 -6.77365127 24.765715 -4.59375 26.53125 C-2.01020782 26.69812448 -2.01020782 26.69812448 0.40625 26.53125 C0.40625 28.51125 0.40625 30.49125 0.40625 32.53125 C0.84453125 32.18191406 1.2828125 31.83257812 1.734375 31.47265625 C7.05723184 27.65361466 11.36235175 26.92597667 17.8671875 26.76953125 C20.5750461 26.78775021 20.5750461 26.78775021 22.40625 24.53125 C22.71528289 22.62896695 22.71528289 22.62896695 22.671875 20.46875 C22.67445312 19.67210937 22.67703125 18.87546875 22.6796875 18.0546875 C22.67195313 17.22195312 22.66421875 16.38921875 22.65625 15.53125 C22.66398437 14.69851562 22.67171875 13.86578125 22.6796875 13.0078125 C22.67582031 11.81285156 22.67582031 11.81285156 22.671875 10.59375 C22.66961914 9.86285156 22.66736328 9.13195312 22.66503906 8.37890625 C22.56073561 6.28427636 22.56073561 6.28427636 20.40625 4.53125 C17.81820824 4.23643755 17.81820824 4.23643755 14.8125 4.30078125 C13.14380859 4.30368164 13.14380859 4.30368164 11.44140625 4.30664062 C10.27480469 4.31888672 9.10820312 4.33113281 7.90625 4.34375 C6.73964844 4.34439453 5.57304687 4.34503906 4.37109375 4.34570312 C-1.28583138 4.09462097 -1.28583138 4.09462097 -6.59375 5.53125 Z " fill="#FFFFFF" transform="translate(14.59375,9.46875)"/>
<path d="M0 0 C1.18916016 -0.020625 2.37832031 -0.04125 3.60351562 -0.0625 C4.75142578 -0.06765625 5.89933594 -0.0728125 7.08203125 -0.078125 C8.13237549 -0.0874707 9.18271973 -0.09681641 10.26489258 -0.10644531 C13.66749709 0.30854112 15.48127971 1.16371591 18.1875 3.25 C20.09818996 6.06599991 20.44308613 8.32730849 20.453125 11.69140625 C20.45699219 12.93760742 20.45699219 12.93760742 20.4609375 14.20898438 C20.45320313 15.06814453 20.44546875 15.92730469 20.4375 16.8125 C20.44910156 18.10704102 20.44910156 18.10704102 20.4609375 19.42773438 C20.45835938 20.25724609 20.45578125 21.08675781 20.453125 21.94140625 C20.45086914 22.69623291 20.44861328 23.45105957 20.44628906 24.22875977 C20.1875 26.25 20.1875 26.25 18.1875 29.25 C17.5275 29.25 16.8675 29.25 16.1875 29.25 C16.17291748 28.62955811 16.15833496 28.00911621 16.14331055 27.36987305 C16.06883412 24.55845367 15.97217436 21.74822251 15.875 18.9375 C15.85244141 17.96103516 15.82988281 16.98457031 15.80664062 15.97851562 C15.7534668 14.57182617 15.7534668 14.57182617 15.69921875 13.13671875 C15.67303467 12.27264404 15.64685059 11.40856934 15.61987305 10.51831055 C15.32878312 8.23014681 15.32878312 8.23014681 14.05664062 6.4765625 C11.30888839 4.67343982 9.03456084 4.8121507 5.76953125 4.73828125 C4.51591797 4.70283203 3.26230469 4.66738281 1.97070312 4.63085938 C0.66037109 4.60830078 -0.64996094 4.58574219 -2 4.5625 C-3.33532013 4.52932334 -4.67060832 4.49483334 -6.00585938 4.45898438 C-9.27465504 4.37637943 -12.54317812 4.30726771 -15.8125 4.25 C-15.4825 3.26 -15.1525 2.27 -14.8125 1.25 C-10.49797526 -0.90726237 -4.73894909 0.02034975 0 0 Z " fill="#FFFFFF" transform="translate(25.8125,4.75)"/>
</svg>
