<?xml version="1.0" encoding="UTF-8"?>
<svg version="1.1" xmlns="http://www.w3.org/2000/svg" width="48" height="48">
<path d="M0 0 C7.26 0 14.52 0 22 0 C22 6 22 6 20.72265625 7.79296875 C19.90087891 8.48326172 19.90087891 8.48326172 19.0625 9.1875 C16.65578772 11.25283465 16.04995698 11.85012907 15 15 C14.01 15.495 14.01 15.495 13 16 C13.85334283 19.04765553 13.85334283 19.04765553 16 22 C18.94416805 23.12755372 21.87809026 23.62039672 25 24 C24.00347261 26.22302264 23.24680011 27.78666431 21.38671875 29.39453125 C19.34228186 31.76147087 19.70437752 33.62402973 19.8125 36.6875 C19.83957031 37.68136719 19.86664063 38.67523438 19.89453125 39.69921875 C19.92933594 40.45847656 19.96414062 41.21773437 20 42 C19.0925 41.690625 18.185 41.38125 17.25 41.0625 C16.1775 40.711875 15.105 40.36125 14 40 C13.34 39.731875 12.68 39.46375 12 39.1875 C8.85046248 38.89223086 6.71427354 40.52485134 4 42 C3.34 42 2.68 42 2 42 C2.05800781 41.26394531 2.11601562 40.52789062 2.17578125 39.76953125 C2.61195707 33.34469628 2.61195707 33.34469628 -0.5 27.9375 C-1.325 27.298125 -2.15 26.65875 -3 26 C-3 25.34 -3 24.68 -3 24 C-2.38511719 23.92523437 -1.77023437 23.85046875 -1.13671875 23.7734375 C1.37475548 23.36487231 3.62108228 22.91107487 6 22 C8.14665717 19.04765553 8.14665717 19.04765553 9 16 C8.34 15.67 7.68 15.34 7 15 C6.54625 14.236875 6.0925 13.47375 5.625 12.6875 C4.13983662 9.93028786 4.13983662 9.93028786 1.8125 8.0625 C0 6 0 6 0 0 Z " fill="#FFD249" transform="translate(13,3)"/>
<path d="M0 0 C7.26 0 14.52 0 22 0 C22 6 22 6 20.72265625 7.79296875 C19.90087891 8.48326172 19.90087891 8.48326172 19.0625 9.1875 C16.65578772 11.25283465 16.04995698 11.85012907 15 15 C13.68 15 12.36 15 11 15 C11 17.97 11 20.94 11 24 C11.66 24 12.32 24 13 24 C13 24.66 13 25.32 13 26 C11.35 26.33 9.7 26.66 8 27 C7.67 26.01 7.34 25.02 7 24 C6.01 23.67 5.02 23.34 4 23 C4.45375 22.5875 4.9075 22.175 5.375 21.75 C7.05950374 19.93591905 7.99265971 18.24714373 9 16 C8.34 15.67 7.68 15.34 7 15 C6.54625 14.236875 6.0925 13.47375 5.625 12.6875 C4.13983662 9.93028786 4.13983662 9.93028786 1.8125 8.0625 C0 6 0 6 0 0 Z " fill="#FED44B" transform="translate(13,3)"/>
<path d="M0 0 C0.66 0.33 1.32 0.66 2 1 C2 1.99 2 2.98 2 4 C2.66 4 3.32 4 4 4 C4.33 7.3 4.66 10.6 5 14 C4.0925 13.690625 3.185 13.38125 2.25 13.0625 C1.1775 12.711875 0.105 12.36125 -1 12 C-1.639375 11.731875 -2.27875 11.46375 -2.9375 11.1875 C-6.36914548 10.87553223 -8.93428398 12.52609807 -12 14 C-10.80100302 10.9168649 -9.52299523 7.93720508 -8 5 C-6.02 5 -4.04 5 -2 5 C-1.34 3.35 -0.68 1.7 0 0 Z " fill="#FFD34C" transform="translate(28,31)"/>
<path d="M0 0 C3.3 0 6.6 0 10 0 C11.41677313 5.66709252 10.81877829 9.89015435 7.9375 14.9375 C7.298125 15.948125 6.65875 16.95875 6 18 C5.67 18 5.34 18 5 18 C5.05800781 17.26394531 5.11601562 16.52789062 5.17578125 15.76953125 C5.61195707 9.34469628 5.61195707 9.34469628 2.5 3.9375 C1.675 3.298125 0.85 2.65875 0 2 C0 1.34 0 0.68 0 0 Z " fill="#FFD34B" transform="translate(10,27)"/>
<path d="M0 0 C2.97 0 5.94 0 9 0 C9.5 2.5625 9.5 2.5625 9 6 C6.60315805 8.68639333 3.92667674 10.90863269 1 13 C0.67 13 0.34 13 0 13 C0 8.71 0 4.42 0 0 Z " fill="#C9D3D9" transform="translate(26,3)"/>
<path d="M0 0 C2.97 0 5.94 0 9 0 C9 4.29 9 8.58 9 13 C2.29787234 8.9787234 2.29787234 8.9787234 0 6 C-0.25 2.75 -0.25 2.75 0 0 Z " fill="#C9D2D9" transform="translate(13,3)"/>
<path d="M0 0 C2.625 0.375 2.625 0.375 5 1 C5.625 3.375 5.625 3.375 6 6 C5.34 6.66 4.68 7.32 4 8 C1.375 7.625 1.375 7.625 -1 7 C-1.625 4.625 -1.625 4.625 -2 2 C-1.34 1.34 -0.68 0.68 0 0 Z " fill="#FFB505" transform="translate(22,29)"/>
<path d="M0 0 C1.32 0 2.64 0 4 0 C4 4.29 4 8.58 4 13 C2.68 13 1.36 13 0 13 C0 8.71 0 4.42 0 0 Z " fill="#FF1744" transform="translate(22,3)"/>
<path d="M0 0 C1.98 0.66 3.96 1.32 6 2 C5.01 2.495 5.01 2.495 4 3 C3.67 3.99 3.34 4.98 3 6 C-0.5625 7.6875 -0.5625 7.6875 -4 9 C-2.80100302 5.9168649 -1.52299523 2.93720508 0 0 Z " fill="#FFD44B" transform="translate(20,36)"/>
<path d="M0 0 C1.32 0 2.64 0 4 0 C4.25 2.8125 4.25 2.8125 4 6 C2 7.875 2 7.875 0 9 C0 6.03 0 3.06 0 0 Z " fill="#3E50B4" transform="translate(31,3)"/>
<path d="M0 0 C1.32 0 2.64 0 4 0 C4 2.97 4 5.94 4 9 C2 7.875 2 7.875 0 6 C-0.25 2.8125 -0.25 2.8125 0 0 Z " fill="#3E50B4" transform="translate(13,3)"/>
<path d="M0 0 C1.32 2.31 2.64 4.62 4 7 C0.59687262 5.94124926 -2.01353231 4.99097846 -5 3 C-5 2.34 -5 1.68 -5 1 C-3 0 -3 0 0 0 Z " fill="#FFB910" transform="translate(29,38)"/>
<path d="M0 0 C3.51716303 3.51716303 3.54676163 5.19567333 4 10 C2.68 9.67 1.36 9.34 0 9 C0 6.03 0 3.06 0 0 Z " fill="#FFBA0D" transform="translate(24,18)"/>
<path d="M0 0 C0.99 0.99 1.98 1.98 3 3 C1.68 5.64 0.36 8.28 -1 11 C-1.33 11 -1.66 11 -2 11 C-1.85957123 9.35369672 -1.71250671 7.70795821 -1.5625 6.0625 C-1.48128906 5.14597656 -1.40007813 4.22945312 -1.31640625 3.28515625 C-1 1 -1 1 0 0 Z " fill="#FFB80D" transform="translate(17,34)"/>
<path d="M0 0 C-0.9520721 1.00596297 -1.91187346 2.00461563 -2.875 3 C-3.40867187 3.556875 -3.94234375 4.11375 -4.4921875 4.6875 C-6 6 -6 6 -8 6 C-8 4.35 -8 2.7 -8 1 C-2.25 -1.125 -2.25 -1.125 0 0 Z " fill="#FFB80D" transform="translate(38,29)"/>
<path d="M0 0 C3.3 0 6.6 0 10 0 C9.67 0.99 9.34 1.98 9 3 C6.03 2.67 3.06 2.34 0 2 C0 1.34 0 0.68 0 0 Z " fill="#FFB90E" transform="translate(10,27)"/>
</svg>
