<?xml version="1.0" encoding="UTF-8"?>
<svg version="1.1" xmlns="http://www.w3.org/2000/svg" width="50" height="50">
<path d="M0 0 C3.56170047 2.77812636 5.79190031 5.14195655 7.125 9.4375 C7.53316864 12.78448283 7.74860351 16.0792918 7.8515625 19.44921875 C8.11894862 22.37136709 8.71577126 23.92419048 10.125 26.4375 C10.375 29.0625 10.375 29.0625 10.125 31.4375 C8.125 33.4375 8.125 33.4375 5.7421875 33.6328125 C4.38480469 33.59800781 4.38480469 33.59800781 3 33.5625 C2.08992188 33.54445312 1.17984375 33.52640625 0.2421875 33.5078125 C-0.45648438 33.48460937 -1.15515625 33.46140625 -1.875 33.4375 C-2.308125 34.6440625 -2.308125 34.6440625 -2.75 35.875 C-3.875 38.4375 -3.875 38.4375 -5.875 39.4375 C-9.61901272 39.8444579 -11.24287347 39.93654726 -14.25 37.5625 C-15.875 35.4375 -15.875 35.4375 -15.875 33.4375 C-16.57367188 33.46070313 -17.27234375 33.48390625 -17.9921875 33.5078125 C-18.90226562 33.52585938 -19.81234375 33.54390625 -20.75 33.5625 C-21.65492187 33.58570313 -22.55984375 33.60890625 -23.4921875 33.6328125 C-25.875 33.4375 -25.875 33.4375 -27.875 31.4375 C-27.33152174 25.35054348 -27.33152174 25.35054348 -25.875 22.4375 C-25.74530258 20.56409287 -25.64561618 18.68855101 -25.5625 16.8125 C-25.06317742 10.59705177 -24.09654771 5.453417 -19.40625 1.0625 C-13.66494609 -2.8372536 -6.18190111 -3.06441879 0 0 Z M-20.0078125 9.20703125 C-21.14354719 12.12822272 -21.23045608 14.74923767 -21.375 17.875 C-21.58977036 22.50867045 -22.09458778 24.98646944 -23.875 29.4375 C-13.975 29.4375 -4.075 29.4375 6.125 29.4375 C5.465 27.7875 4.805 26.1375 4.125 24.4375 C3.8038457 21.15278256 3.68582987 17.89138292 3.56640625 14.59375 C2.92838186 10.03159331 1.0568131 7.42255956 -2.0625 4.125 C-9.35203321 -0.24871992 -15.64822322 2.39705214 -20.0078125 9.20703125 Z M-10.875 33.4375 C-10.545 34.0975 -10.215 34.7575 -9.875 35.4375 C-8.885 35.1075 -7.895 34.7775 -6.875 34.4375 C-8.195 34.1075 -9.515 33.7775 -10.875 33.4375 Z " fill="#FFFFFF" transform="translate(33.875,5.5625)"/>
</svg>
