<?xml version="1.0" encoding="UTF-8"?>
<svg version="1.1" xmlns="http://www.w3.org/2000/svg" width="24" height="24">
<path d="M0 0 C1.32 0.66 2.64 1.32 4 2 C4 2.66 4 3.32 4 4 C6.67643957 4.89214652 8.25384378 5.13540211 11 5.125 C12.0209375 5.12886719 12.0209375 5.12886719 13.0625 5.1328125 C15.21874781 5.06631126 15.21874781 5.06631126 18 4 C19.20882096 1.99983534 19.20882096 1.99983534 20 0 C20.66 0 21.32 0 22 0 C22 3 22 6 22 9 C20.68 8.67 19.36 8.34 18 8 C18 9.32 18 10.64 18 12 C15 12 15 12 13.3125 10.5 C12.879375 10.005 12.44625 9.51 12 9 C12 10.32 12 11.64 12 13 C11.34 13 10.68 13 10 13 C10 11.68 10 10.36 10 9 C9.566875 9.495 9.13375 9.99 8.6875 10.5 C7 12 7 12 4 12 C3.67 10.68 3.34 9.36 3 8 C1.68 8.33 0.36 8.66 -1 9 C-0.67 6.03 -0.34 3.06 0 0 Z " fill="#000000" transform="translate(1,9)"/>
<path d="M0 0 C0.87527344 -0.01417969 1.75054687 -0.02835937 2.65234375 -0.04296875 C5.0625 0.1875 5.0625 0.1875 8.0625 2.1875 C7.7325 3.1775 7.4025 4.1675 7.0625 5.1875 C6.0725 4.8575 5.0825 4.5275 4.0625 4.1875 C2.10572445 4.02995296 2.10572445 4.02995296 0.0625 4.0625 C-0.618125 4.05992188 -1.29875 4.05734375 -2 4.0546875 C-4.15624781 4.12118874 -4.15624781 4.12118874 -6.9375 5.1875 C-6.9375 3.8675 -6.9375 2.5475 -6.9375 1.1875 C-4.47380468 -0.04434766 -2.7480499 0.02017658 0 0 Z " fill="#000000" transform="translate(11.9375,2.8125)"/>
</svg>
