<?xml version="1.0" encoding="UTF-8"?>
<svg version="1.1" xmlns="http://www.w3.org/2000/svg" width="50" height="50">
<path d="M0 0 C3.1875 -0.3984375 3.1875 -0.3984375 7 -0.375 C8.8871875 -0.38660156 8.8871875 -0.38660156 10.8125 -0.3984375 C11.864375 -0.26695313 12.91625 -0.13546875 14 0 C14.66 0.99 15.32 1.98 16 3 C18.3140622 3.73075648 20.64828869 4.40138258 23 5 C24.96741628 6.96741628 24.16388207 10.77567731 24.16796875 13.46484375 C24.17296135 14.5876046 24.17296135 14.5876046 24.17805481 15.73304749 C24.18312693 17.31933984 24.18546305 18.9056429 24.18530273 20.49194336 C24.18748773 22.92384369 24.20563581 25.35528949 24.22460938 27.78710938 C24.22754349 29.32551928 24.22952817 30.86393134 24.23046875 32.40234375 C24.23765427 33.13259262 24.24483978 33.86284149 24.25224304 34.61521912 C24.22882307 39.77117693 24.22882307 39.77117693 22 42 C19.05078125 42.25878906 19.05078125 42.25878906 15.3125 42.265625 C14.65419189 42.26753845 13.99588379 42.2694519 13.31762695 42.27142334 C11.9256146 42.2727845 10.53358953 42.26909283 9.14160156 42.26074219 C7.00817411 42.250041 4.87558869 42.26063906 2.7421875 42.2734375 C1.39062314 42.27211589 0.0390593 42.26955347 -1.3125 42.265625 C-2.54613281 42.26336914 -3.77976562 42.26111328 -5.05078125 42.25878906 C-8 42 -8 42 -10 40 C-10.1995697 37.44249547 -10.27986826 34.99561859 -10.265625 32.4375 C-10.26753845 31.69040771 -10.2694519 30.94331543 -10.27142334 30.17358398 C-10.27278498 28.59325829 -10.26909 27.01292142 -10.26074219 25.43261719 C-10.250042 23.00951078 -10.26063779 20.58714577 -10.2734375 18.1640625 C-10.2721159 16.63020669 -10.2695535 15.09635135 -10.265625 13.5625 C-10.26967346 12.83538818 -10.27372192 12.10827637 -10.27789307 11.35913086 C-10.22992361 6.22992361 -10.22992361 6.22992361 -8 4 C-6.515 3.7834375 -6.515 3.7834375 -5 3.5625 C-4.01 3.376875 -3.02 3.19125 -2 3 C-1.34 2.01 -0.68 1.02 0 0 Z M2 4 C2.33 4.66 2.66 5.32 3 6 C5.64 6 8.28 6 11 6 C11.33 5.34 11.66 4.68 12 4 C8.7 4 5.4 4 2 4 Z M-6 8 C-6 17.9 -6 27.8 -6 38 C2.58 38 11.16 38 20 38 C20 28.1 20 18.2 20 8 C18.02 8 16.04 8 14 8 C13.67 8.33 13.34 8.66 13 9 C11.00200428 9.09873816 9.00042842 9.12971799 7 9.125 C5.906875 9.12757812 4.81375 9.13015625 3.6875 9.1328125 C1 9 1 9 0 8 C-1.98 8 -3.96 8 -6 8 Z " fill="#000000" transform="translate(18,3)"/>
<path d="M0 0 C0.66 0.66 1.32 1.32 2 2 C1.78820994 8.58390838 -1.74666547 11.56982139 -6.27734375 15.91796875 C-10.04143983 18.79639516 -12.33409668 19.17281123 -17 19 C-18.26179292 16.13228881 -17.94435201 14.80708698 -17.0625 11.75 C-13.89464048 4.91097618 -7.79801383 -2.1444538 0 0 Z M-5 4 C-6.33929505 5.28548409 -7.67128643 6.57858155 -9 7.875 C-9.7425 8.59429688 -10.485 9.31359375 -11.25 10.0546875 C-13.22293325 11.81170957 -13.22293325 11.81170957 -13 14 C-9.78475695 12.59155282 -7.67816132 10.89655214 -5.25 8.375 C-4.63640625 7.74335938 -4.0228125 7.11171875 -3.390625 6.4609375 C-2.93171875 5.97882812 -2.4728125 5.49671875 -2 5 C-2.99 4.67 -3.98 4.34 -5 4 Z " fill="#000000" transform="translate(33,18)"/>
</svg>
